<svg width="30" height="30" viewBox="0 0 30 30" fill="none" xmlns="http://www.w3.org/2000/svg">
<path d="M15 10.7812C17.332 10.7812 19.2188 12.668 19.2188 15C19.2188 17.332 17.332 19.2188 15 19.2188C12.668 19.2188 10.7812 17.332 10.7812 15C10.7812 12.668 12.668 10.7812 15 10.7812ZM10.7812 4.6875C10.7812 7.01953 12.668 8.90625 15 8.90625C17.332 8.90625 19.2188 7.01953 19.2188 4.6875C19.2188 2.35547 17.332 0.46875 15 0.46875C12.668 0.46875 10.7812 2.35547 10.7812 4.6875ZM10.7812 25.3125C10.7812 27.6445 12.668 29.5312 15 29.5312C17.332 29.5312 19.2188 27.6445 19.2188 25.3125C19.2188 22.9805 17.332 21.0938 15 21.0938C12.668 21.0938 10.7812 22.9805 10.7812 25.3125Z" fill="#E5E5E5"/>
</svg>
